<svg width="180" height="80" viewBox="0 0 180 80" fill="none" xmlns="http://www.w3.org/2000/svg">
<path d="M38.394 34.9861C38.394 36.7122 37.922 38.3304 36.9781 39.8407C36.0341 41.3241 34.78 42.5108 33.2158 43.4008C31.6785 44.2638 30.0603 44.6953 28.3612 44.6953C27.9027 44.6953 27.5655 44.6818 27.3498 44.6549V46.354C27.3498 48.9431 27.3902 51.748 27.4711 54.7686C27.2014 54.7686 26.8239 54.8091 26.3384 54.89C26.1496 54.917 25.7316 54.9574 25.0843 55.0114C24.464 55.0923 23.8706 55.1327 23.3043 55.1327C22.0906 55.1327 20.9174 55.0653 19.7847 54.9305C19.7847 54.5529 19.7307 54.3236 19.6229 54.2427C19.515 54.1618 19.2992 54.1214 18.9756 54.1214C18.8677 51.5053 18.8138 46.8934 18.8138 40.2857V35.3907C18.8138 30.8597 18.7733 27.5828 18.6924 25.5601C20.7421 24.9937 22.8458 24.7105 25.0034 24.7105C27.2419 24.7105 29.3456 25.0881 31.3144 25.8433C33.3102 26.5715 34.9553 27.7042 36.2499 29.2415C37.5445 30.7788 38.2592 32.6802 38.394 34.9457V34.9861ZM37.1804 34.1366C37.0185 31.008 35.7644 28.7291 33.418 27.2996C31.0716 25.8433 28.2533 25.1151 24.9629 25.1151C23.048 25.1151 21.0927 25.3713 19.0969 25.8837C19.2048 28.9044 19.2588 33.6915 19.2588 40.2453V47.3654C19.2588 49.6309 19.2992 51.7615 19.3801 53.7573C20.1083 53.8651 21.1467 53.9191 22.4952 53.9191C24.2752 53.9191 25.4888 53.8112 26.1361 53.5954L26.2575 53.5145C26.1766 50.8984 26.1361 48.4172 26.1361 46.0708V44.4931C26.1361 43.9806 26.1226 43.603 26.0957 43.3603C26.5811 43.4412 27.0666 43.4817 27.552 43.4817C29.0624 43.4817 30.5592 43.0906 32.0426 42.3085C33.5529 41.5263 34.78 40.461 35.724 39.1125C36.6949 37.764 37.1804 36.3076 37.1804 34.7434V34.1366ZM31.3548 34.7838C31.3548 35.9705 30.8963 36.7257 29.9794 37.0493C29.0893 37.373 27.8892 37.5483 26.3789 37.5752L25.4888 37.6157H25.3675C25.1517 36.9414 25.0438 35.8357 25.0438 34.2984C25.0438 33.0308 25.0303 32.1138 25.0034 31.5474C25.1652 31.3856 25.7316 31.3047 26.7025 31.3047C28.051 31.3047 29.1837 31.6823 30.1007 32.4374C30.5053 32.6802 30.8154 33.0173 31.0312 33.4488C31.2469 33.8534 31.3548 34.2984 31.3548 34.7838ZM27.5116 32.5183C26.9992 32.5183 26.5676 32.5723 26.217 32.6802C26.244 33.0847 26.2575 33.6646 26.2575 34.4197V35.5929V36.2807C26.2575 36.6852 26.2845 36.9819 26.3384 37.1707H26.5407C27.8352 37.1707 28.8871 37.0223 29.6962 36.7257C30.5322 36.402 30.9503 35.7413 30.9503 34.7434C30.9503 33.9612 30.5997 33.3949 29.8984 33.0443C29.1972 32.6937 28.4016 32.5183 27.5116 32.5183ZM57.2894 34.9861C57.2894 36.7122 56.8174 38.3304 55.8735 39.8407C54.9295 41.3241 53.6754 42.5108 52.1111 43.4008C50.5738 44.2638 48.9556 44.6953 47.2565 44.6953C46.798 44.6953 46.4609 44.6818 46.2451 44.6549V46.354C46.2451 48.9431 46.2856 51.748 46.3665 54.7686C46.0968 54.7686 45.7192 54.8091 45.2338 54.89C45.045 54.917 44.6269 54.9574 43.9797 55.0114C43.3593 55.0923 42.766 55.1327 42.1996 55.1327C40.986 55.1327 39.8128 55.0653 38.68 54.9305C38.68 54.5529 38.6261 54.3236 38.5182 54.2427C38.4103 54.1618 38.1946 54.1214 37.8709 54.1214C37.7631 51.5053 37.7091 46.8934 37.7091 40.2857V35.3907C37.7091 30.8597 37.6687 27.5828 37.5878 25.5601C39.6375 24.9937 41.7411 24.7105 43.8987 24.7105C46.1373 24.7105 48.2409 25.0881 50.2097 25.8433C52.2055 26.5715 53.8507 27.7042 55.1453 29.2415C56.4398 30.7788 57.1545 32.6802 57.2894 34.9457V34.9861ZM56.0757 34.1366C55.9139 31.008 54.6598 28.7291 52.3134 27.2996C49.967 25.8433 47.1486 25.1151 43.8583 25.1151C41.9434 25.1151 39.9881 25.3713 37.9923 25.8837C38.1002 28.9044 38.1541 33.6915 38.1541 40.2453V47.3654C38.1541 49.6309 38.1946 51.7615 38.2755 53.7573C39.0037 53.8651 40.042 53.9191 41.3905 53.9191C43.1706 53.9191 44.3842 53.8112 45.0315 53.5954L45.1529 53.5145C45.0719 50.8984 45.0315 48.4172 45.0315 46.0708V44.4931C45.0315 43.9806 45.018 43.603 44.991 43.3603C45.4765 43.4412 45.962 43.4817 46.4474 43.4817C47.9577 43.4817 49.4546 43.0906 50.9379 42.3085C52.4483 41.5263 53.6754 40.461 54.6193 39.1125C55.5903 37.764 56.0757 36.3076 56.0757 34.7434V34.1366ZM50.2502 34.7838C50.2502 35.9705 49.7917 36.7257 48.8747 37.0493C47.9847 37.373 46.7845 37.5483 45.2742 37.5752L44.3842 37.6157H44.2628C44.0471 36.9414 43.9392 35.8357 43.9392 34.2984C43.9392 33.0308 43.9257 32.1138 43.8987 31.5474C44.0606 31.3856 44.6269 31.3047 45.5979 31.3047C46.9464 31.3047 48.0791 31.6823 48.9961 32.4374C49.4006 32.6802 49.7108 33.0173 49.9266 33.4488C50.1423 33.8534 50.2502 34.2984 50.2502 34.7838ZM46.407 32.5183C45.8945 32.5183 45.463 32.5723 45.1124 32.6802C45.1394 33.0847 45.1529 33.6646 45.1529 34.4197V35.5929V36.2807C45.1529 36.6852 45.1798 36.9819 45.2338 37.1707H45.436C46.7306 37.1707 47.7824 37.0223 48.5915 36.7257C49.4276 36.402 49.8456 35.7413 49.8456 34.7434C49.8456 33.9612 49.495 33.3949 48.7938 33.0443C48.0926 32.6937 47.297 32.5183 46.407 32.5183ZM75.5779 54.9305C74.5531 55.1193 73.218 55.2137 71.5729 55.2137C70.4401 55.2137 69.6175 55.2271 69.1051 55.2541L68.9837 54.4046C68.6601 54.4046 68.4309 54.418 68.296 54.445C68.1072 53.0156 67.9859 50.9524 67.9319 48.2554C67.878 46.2866 67.8106 44.8302 67.7296 43.8862C67.1363 43.8323 66.7722 43.8053 66.6374 43.8053C65.8552 43.8053 65.1405 43.8727 64.4932 44.0076C64.4663 44.4121 64.4528 45.0729 64.4528 45.9899L64.4932 48.4172C64.5202 48.9566 64.5337 49.7522 64.5337 50.804C64.5337 52.5032 64.4393 53.8247 64.2505 54.7686C63.765 55.0653 63.1043 55.2137 62.2682 55.2137C61.9446 55.2137 61.4591 55.1867 60.8118 55.1327C60.1645 55.0788 59.733 55.0518 59.5173 55.0518C59.0318 55.0518 58.5329 55.1867 58.0204 55.4564L57.9395 54.3236C57.6968 54.3776 57.454 54.4855 57.2113 54.6473C57.0495 52.7324 56.9012 49.2263 56.7663 44.129C56.6315 39.0046 56.564 34.3253 56.564 30.091C56.564 27.7986 56.5775 26.2208 56.6045 25.3578L57.2113 25.3173C57.5889 25.3983 57.953 25.4387 58.3036 25.4387C58.5733 25.4387 59.0318 25.4117 59.6791 25.3578C60.4342 25.3039 61.0276 25.2769 61.4591 25.2769C61.7827 25.2769 62.0524 25.3443 62.2682 25.4792C62.484 25.587 62.6323 25.8163 62.7132 26.1669C62.875 26.1939 63.0099 26.2208 63.1178 26.2478C63.2526 26.2748 63.3605 26.3017 63.4414 26.3287C63.5493 27.2727 63.6302 28.6481 63.6841 30.4551C63.792 33.0173 63.9673 34.9457 64.21 36.2402H64.6551C65.4911 36.2402 66.2463 36.1863 66.9205 36.0784H67.2037C67.3655 34.1366 67.4465 32.2217 67.4465 30.3338C67.4465 28.2301 67.406 26.6389 67.3251 25.5601C68.6197 25.1825 70.1704 24.9937 71.9774 24.9937H72.5438C72.9753 24.9937 73.3529 25.0207 73.6765 25.0746V25.8433C74.0002 25.8433 74.2699 25.8567 74.4856 25.8837L75.5779 54.9305ZM73.272 25.4387C72.9753 25.4117 72.5438 25.3983 71.9774 25.3983C70.2244 25.3983 68.8084 25.5601 67.7296 25.8837C67.8106 27.5019 67.851 28.9988 67.851 30.3742C67.851 32.343 67.7566 34.3658 67.5678 36.4425H67.5274C66.5834 36.5773 65.6529 36.6448 64.736 36.6448C64.0887 36.6448 63.5628 36.5908 63.1582 36.4829H63.1178C62.875 35.2154 62.6997 33.3005 62.5918 30.7383C62.5379 28.8504 62.43 27.2187 62.2682 25.8433C61.9176 25.7354 61.4321 25.6814 60.8118 25.6814L59.7195 25.7219L58.3845 25.8028L58.0204 25.8433C57.7237 25.8433 57.4271 25.8028 57.1304 25.7219L57.009 25.7623C56.9821 26.6254 56.9686 28.0683 56.9686 30.091C56.9686 34.3793 57.0225 38.9507 57.1304 43.8053C57.2653 48.6599 57.4136 52.0447 57.5754 53.9595C57.7642 53.8517 58.0609 53.7977 58.4654 53.7977C58.7891 53.7977 59.2745 53.8247 59.9218 53.8786C60.4882 53.9595 61.0276 54 61.54 54C61.9176 54 62.2143 53.9865 62.43 53.9595C62.6728 53.9326 62.8885 53.8517 63.0773 53.7168C63.2122 52.7729 63.2796 51.6131 63.2796 50.2377C63.2796 49.1858 63.2661 48.3902 63.2391 47.8508L63.1987 45.5044C63.1987 44.6414 63.2391 43.7649 63.32 42.8749C64.0482 42.6861 64.8708 42.5917 65.7878 42.5917C66.4081 42.5917 67.1498 42.6591 68.0128 42.7939L68.0533 42.8344C68.1881 43.9402 68.2825 45.6932 68.3365 48.0936C68.3365 50.5748 68.4443 52.5436 68.6601 54H68.7006C68.9163 53.973 69.3074 53.9595 69.8738 53.9595H71.3301C72.5708 53.9595 73.5821 53.8921 74.3643 53.7573L73.272 25.4387ZM93.3387 55.1327C92.2599 55.3215 91.3968 55.4159 90.7495 55.4159C89.5089 55.4159 88.2953 55.2811 87.1086 55.0114C87.0007 54.6877 86.9063 54.4855 86.8254 54.4046C86.7445 54.3236 86.6501 54.2697 86.5422 54.2427C86.4343 54.2427 86.3534 54.2292 86.2995 54.2023C86.0837 53.528 85.787 52.4357 85.4095 50.9254C85.1937 50.0354 85.0049 49.3881 84.8431 48.9836C84.7082 48.579 84.5599 48.3767 84.3981 48.3767C84.1823 48.3767 83.9935 48.3902 83.8317 48.4172C83.6969 48.4172 83.5081 48.4172 83.2653 48.4172C83.0765 48.9296 82.8878 49.7522 82.699 50.885C82.4832 51.9368 82.2944 52.7729 82.1326 53.3932C81.9708 54.0135 81.7415 54.6068 81.4449 55.1732C81.3639 55.1732 81.2426 55.1867 81.0808 55.2137C80.9459 55.2406 80.7706 55.2541 80.5548 55.2541C80.2582 55.2271 79.6379 55.2137 78.6939 55.2137L76.9543 55.1732L74.8102 55.1327L74.9316 54.3236H74.0011L74.5675 51.33C75.3227 46.9608 76.1452 42.6591 77.0353 38.4248C77.9253 34.1635 79.0445 29.7944 80.393 25.3173C80.8785 25.2634 81.1617 25.2364 81.2426 25.2364C81.3505 25.2364 81.7011 25.2499 82.2944 25.2769C82.8878 25.3039 84.1284 25.2229 86.0163 25.0342C86.1242 25.4926 86.1916 25.7893 86.2186 25.9242L86.8254 25.8433C87.0681 27.2187 87.9177 30.9406 89.3741 37.0089C89.9135 39.2204 90.1966 40.3936 90.2236 40.5285L93.3387 55.1327ZM85.6926 25.4792C84.506 25.587 83.3328 25.641 82.1731 25.641H81.3235C80.9999 25.641 80.7976 25.6545 80.7167 25.6814C79.4221 30.0236 78.3433 34.2444 77.4803 38.3439C76.6442 42.4433 75.8081 46.8125 74.972 51.4513C74.8911 51.9638 74.8102 52.4492 74.7293 52.9077C74.6484 53.3392 74.581 53.6764 74.527 53.9191L74.6079 53.9595H75.5789L78.7748 54C79.0445 54.027 79.3682 54.0405 79.7457 54.0405C80.0424 54.0405 80.2177 54.027 80.2717 54L80.393 53.9595C80.6358 53.555 80.8245 53.0695 80.9594 52.5032C81.0942 51.9368 81.2426 51.1816 81.4044 50.2377C81.6741 48.7274 81.9303 47.716 82.1731 47.2035C82.4697 47.2035 82.7125 47.2035 82.9012 47.2035C83.09 47.1766 83.2384 47.1631 83.3462 47.1631H83.8722L84.6813 47.244C84.897 47.7295 85.1128 48.4037 85.3285 49.2668C85.5713 50.1298 85.7196 50.6692 85.7736 50.885C86.0433 52.1526 86.313 53.137 86.5827 53.8382H86.6231C87.6749 54.0809 88.7807 54.2023 89.9404 54.2023C90.6147 54.2023 91.3159 54.1349 92.0441 54V53.9595L89.01 39.8003L85.6926 25.4792ZM81.8899 42.4298C82.2135 40.0295 82.3618 38.9372 82.3349 39.153C82.5506 37.346 82.7259 36.0379 82.8608 35.2288C83.0226 34.3928 83.1844 33.9747 83.3462 33.9747C83.535 33.9747 83.7373 34.6085 83.9531 35.8761C84.1958 37.1437 84.506 39.3283 84.8835 42.4298L82.8608 42.4703L81.8899 42.4298ZM83.8722 37.4134L83.2249 42.0253H84.3981L83.8722 37.4134ZM107.526 26.6524C107.58 27.5693 107.607 28.3784 107.607 29.0797C107.607 30.3203 107.499 31.7767 107.283 33.4488C106.42 33.314 105.8 33.2465 105.422 33.2465C104.694 33.2465 103.696 33.287 102.429 33.3679H102.226C102.199 33.6106 102.186 34.3253 102.186 35.512C102.186 38.0742 102.28 44.547 102.469 54.9305C101.849 55.0383 100.999 55.0923 99.9205 55.0923H98.7473C97.237 55.0923 96.0638 55.1597 95.2277 55.2946C95.1468 55.1597 95.0794 54.863 95.0254 54.4046L94.4186 54.4855C94.2838 54.2427 94.2163 53.7303 94.2163 52.9482L94.2568 46.7585C94.2568 42.9018 94.1354 38.4248 93.8927 33.3274C93.6769 33.3005 93.3398 33.287 92.8813 33.287C92.7195 33.287 92.4228 33.287 91.9913 33.287C91.5868 33.287 91.2092 33.2735 90.8586 33.2465C90.5349 33.2196 90.2248 33.1521 89.9281 33.0443C89.9011 32.9903 89.8742 32.9094 89.8472 32.8015C89.8472 32.6937 89.7933 32.5993 89.6854 32.5183C89.5775 32.4374 89.3887 32.343 89.119 32.2352C89.0381 32.0464 88.9572 31.5609 88.8763 30.7788C88.8223 29.9966 88.7954 29.1471 88.7954 28.2301C88.7954 26.7737 88.8088 25.7354 88.8358 25.1151C90.5349 25.1151 91.816 25.1016 92.679 25.0746L96.5627 25.0342C100.473 25.0342 103.737 25.1825 106.353 25.4792L106.717 25.8433V26.2478L107.162 26.2883L107.526 26.6524ZM89.2404 25.5196L89.2808 25.6005C89.2269 25.9511 89.1999 26.4636 89.1999 27.1378C89.1999 30.0776 89.2808 31.6823 89.4426 31.952C89.5775 32.0059 89.9955 32.0329 90.6967 32.0329C91.6407 32.0329 92.3824 32.0599 92.9218 32.1138C93.4612 32.1408 93.9197 32.2486 94.2973 32.4374L94.3377 32.4779C94.5535 37.3864 94.6613 42.2411 94.6613 47.0417C94.6613 49.1184 94.6344 50.9119 94.5804 52.4223V53.6359L94.6209 54.0405C95.1064 53.9595 95.6323 53.9191 96.1986 53.9191H97.8978C99.489 53.9191 100.608 53.8651 101.256 53.7573V53.6764C101.067 43.3199 100.972 36.9954 100.972 34.7029V33.2465C100.972 32.7071 100.999 32.3835 101.053 32.2756L101.094 32.1543H101.215C102.618 32.0733 103.723 32.0329 104.532 32.0329C105.18 32.0329 105.719 32.0733 106.151 32.1543C106.312 30.9676 106.393 29.673 106.393 28.2706C106.393 27.7042 106.366 26.9086 106.312 25.8837C103.642 25.614 100.392 25.4792 96.5627 25.4792L89.2404 25.5196ZM105.717 54.3641H105.029C104.921 53.6898 104.867 52.8673 104.867 51.8963L104.908 50.0759C104.935 49.8062 104.948 49.4555 104.948 49.024C105.703 48.7004 106.755 48.5386 108.103 48.5386C109.128 48.5386 109.991 48.7004 110.693 49.024L110.774 49.5904C110.854 49.6174 110.976 49.6443 111.138 49.6713C111.299 49.6983 111.407 49.7792 111.461 49.914C111.542 50.0219 111.583 50.2242 111.583 50.5209C111.583 51.0333 111.542 51.8154 111.461 52.8673C111.38 53.8921 111.313 54.6743 111.259 55.2137L105.838 55.1732L105.717 54.3641ZM110.167 53.9191C110.167 53.5415 110.207 52.692 110.288 51.3704C110.369 50.0489 110.409 49.3207 110.409 49.1858C110.059 49.024 109.29 48.9431 108.103 48.9431C106.728 48.9431 105.811 49.051 105.353 49.2668C105.353 49.5904 105.339 49.8736 105.312 50.1163L105.272 52.0986C105.272 53.0426 105.312 53.6629 105.393 53.9595L105.514 54H110.167V53.9191ZM139.636 40.933L140.769 54.0809L138.504 54.6473C137.802 54.2967 137.088 53.8247 136.359 53.2314C135.631 52.611 135.038 51.8694 134.579 51.0063L135.469 40.4071L135.065 31.1833L127.985 52.665L126.488 53.1504C124.762 52.1526 123.427 50.7231 122.483 48.8622L119.368 32.1947L118.276 40.933L117.912 54.0809L115.566 54.6473C114.163 53.9461 112.99 52.7324 112.046 51.0063L114.352 40.4071L115.485 30.091L112.086 30.2124C111.709 29.5651 111.493 28.8235 111.439 27.9874C111.412 27.1243 111.493 26.3557 111.682 25.6814H117.548C117.952 25.8702 118.438 26.1669 119.004 26.5715C119.598 26.976 120.191 27.4075 120.784 27.866C121.405 28.3245 121.93 28.756 122.362 29.1606L126.367 45.9494L133.366 26.2074L134.539 25.3983C134.836 25.4522 135.267 25.6005 135.834 25.8433C136.427 26.086 137.007 26.3557 137.573 26.6524C138.14 26.949 138.544 27.2322 138.787 27.5019L139.636 40.933ZM158.781 48.0936L159.792 50.1163C159.415 50.9254 158.889 51.7345 158.214 52.5436C157.54 53.3257 156.839 54.027 156.111 54.6473L143.286 53.5954L141.547 54.6473C140.414 54.2427 139.538 53.6359 138.917 52.8268L140.495 40.4071L140.01 25.6814L141.183 24.8723C141.479 24.9263 141.898 25.0881 142.437 25.3578C143.003 25.6005 143.529 25.8702 144.015 26.1669L155.908 24.8723C156.664 25.3308 157.324 25.8567 157.891 26.4501C158.484 27.0434 159.037 27.7042 159.549 28.4324L158.983 30.617L144.986 30.2529L144.743 38.0607L153.845 36.7257C154.708 37.1842 155.423 37.6561 155.989 38.1416C156.583 38.6271 157.082 39.2204 157.486 39.9216L156.879 42.268L144.662 41.8635V49.7927L158.781 48.0936Z" fill="#071F43"/>
</svg>
